<svg width="24" height="24" viewBox="0 0 24 24" fill="none" xmlns="http://www.w3.org/2000/svg">
<path d="M19.3376 14.49L18.3376 12.83C18.1276 12.46 17.9376 11.76 17.9376 11.35V8.82C17.9376 6.47 16.5576 4.44 14.5676 3.49C14.0476 2.57 13.0876 2 11.9876 2C10.8976 2 9.91762 2.59 9.39762 3.52C7.44762 4.49 6.09762 6.5 6.09762 8.82V11.35C6.09762 11.76 5.90762 12.46 5.69762 12.82L4.68762 14.49C4.28762 15.16 4.19762 15.9 4.44762 16.58C4.68762 17.25 5.25762 17.77 5.99762 18.02C7.93762 18.68 9.97762 19 12.0176 19C14.0576 19 16.0976 18.68 18.0376 18.03C18.7376 17.8 19.2776 17.27 19.5376 16.58C19.7976 15.89 19.7276 15.13 19.3376 14.49Z" fill="#101010"/>
<path d="M14.8274 20.01C14.4074 21.17 13.2974 22 11.9974 22C11.2074 22 10.4274 21.68 9.87737 21.11C9.55737 20.81 9.31737 20.41 9.17737 20C9.30737 20.02 9.43737 20.03 9.57737 20.05C9.80737 20.08 10.0474 20.11 10.2874 20.13C10.8574 20.18 11.4374 20.21 12.0174 20.21C12.5874 20.21 13.1574 20.18 13.7174 20.13C13.9274 20.11 14.1374 20.1 14.3374 20.07C14.4974 20.05 14.6574 20.03 14.8274 20.01Z" fill="#101010"/>
</svg>
