<svg width="16" height="18" viewBox="0 0 16 18" fill="none" xmlns="http://www.w3.org/2000/svg">
<path d="M8.00008 10.9167C3.82505 10.9167 0.425049 13.7167 0.425049 17.1667C0.425049 17.4 0.608382 17.5833 0.841716 17.5833H15.1584C15.3917 17.5833 15.5751 17.4 15.5751 17.1667C15.5751 13.7167 12.1751 10.9167 8.00008 10.9167Z" fill="white"/>
<path fill-rule="evenodd" clip-rule="evenodd" d="M5.39992 1.83332C6.11659 1.25832 7.01658 0.916656 7.99992 0.916656C10.2999 0.916656 12.1666 2.78332 12.1666 5.08332C12.1666 5.86666 11.9499 6.59999 11.5666 7.22499C11.3499 7.59999 11.0666 7.93332 10.7416 8.20832C10.0083 8.86666 9.04992 9.24999 7.99992 9.24999C6.47492 9.24999 5.15825 8.43332 4.44159 7.22499C4.04992 6.59999 3.83325 5.86666 3.83325 5.08332C3.83325 3.76666 4.44159 2.59166 5.39992 1.83332ZM7.32026 3.11865C7.01024 2.80863 6.5076 2.80863 6.19758 3.11865C5.88757 3.42866 5.88757 3.9313 6.19758 4.24132L7.03959 5.08333L6.1976 5.92532C5.88758 6.23534 5.88758 6.73798 6.19759 7.048C6.50761 7.35801 7.01025 7.35801 7.32027 7.048L8.16227 6.206L9.00426 7.048C9.31428 7.35801 9.81692 7.35801 10.1269 7.048C10.437 6.73798 10.437 6.23534 10.1269 5.92532L9.28494 5.08333L10.1269 4.24132C10.437 3.9313 10.437 3.42866 10.1269 3.11865C9.81693 2.80863 9.31429 2.80863 9.00427 3.11865L8.16227 3.96065L7.32026 3.11865Z" fill="white"/>
</svg>
