<svg width="20" height="20" viewBox="0 0 20 20" fill="none" xmlns="http://www.w3.org/2000/svg">
<path d="M16.0809 6.49808C17.8753 6.49808 19.33 5.04344 19.33 3.24904C19.33 1.45465 17.8753 0 16.0809 0C14.2865 0 12.8319 1.45465 12.8319 3.24904C12.8319 5.04344 14.2865 6.49808 16.0809 6.49808Z" fill="white"/>
<path d="M3.91896 6.49808C5.71335 6.49808 7.168 5.04344 7.168 3.24904C7.168 1.45465 5.71335 0 3.91896 0C2.12457 0 0.669922 1.45465 0.669922 3.24904C0.669922 5.04344 2.12457 6.49808 3.91896 6.49808Z" fill="white"/>
<path d="M16.0809 20C17.8753 20 19.33 18.5454 19.33 16.751C19.33 14.9565 17.8753 13.5019 16.0809 13.5019C14.2865 13.5019 12.8319 14.9565 12.8319 16.751C12.8319 18.5454 14.2865 20 16.0809 20Z" fill="white"/>
<path d="M3.91896 20C5.71335 20 7.168 18.5454 7.168 16.751C7.168 14.9565 5.71335 13.5019 3.91896 13.5019C2.12457 13.5019 0.669922 14.9565 0.669922 16.751C0.669922 18.5454 2.12457 20 3.91896 20Z" fill="white"/>
</svg>
