<svg width="28" height="28" viewBox="0 0 28 28" fill="none" xmlns="http://www.w3.org/2000/svg">
<path d="M10.0342 0.692871C6.54753 0.692871 3.71295 3.52745 3.71295 7.01411C3.71295 10.4342 6.38783 13.2023 9.87449 13.322C9.98096 13.3087 10.0874 13.3087 10.1673 13.322H10.2338H10.2604C13.6672 13.2023 16.3421 10.4342 16.3554 7.01411C16.3554 3.52745 13.5208 0.692871 10.0342 0.692871Z" fill="#101010"/>
<path d="M16.7958 16.8605C13.0829 14.3852 7.02785 14.3852 3.28834 16.8605C1.59824 17.9916 0.666687 19.522 0.666687 21.1589C0.666687 22.7958 1.59824 24.3129 3.27503 25.4307C5.13813 26.6817 7.58678 27.3072 10.0354 27.3072C12.484 27.3072 14.9327 26.6817 16.7958 25.4307C18.4726 24.2996 19.4041 22.7825 19.4041 21.1323C19.3908 19.4954 18.4726 17.9783 16.7958 16.8605Z" fill="#101010"/>
<path d="M24.6587 7.79677C24.8716 10.3785 23.0351 12.6408 20.4933 12.9468C20.48 12.9468 20.48 12.9468 20.4667 12.9468H20.4268C20.347 12.9468 20.2671 12.9468 20.2006 12.9735C18.9097 13.04 17.7253 12.6275 16.8337 11.8689C18.2044 10.6447 18.9896 8.80817 18.8299 6.81199C18.7367 5.73405 18.3641 4.74927 17.8052 3.91087C18.3109 3.65802 18.8964 3.49833 19.4953 3.4451C22.1036 3.21886 24.4325 5.16181 24.6587 7.79677Z" fill="#101010"/>
<path d="M27.3188 20.1096C27.2124 21.4004 26.3873 22.5183 25.0033 23.2769C23.6725 24.0088 21.9957 24.3548 20.3322 24.3149C21.2904 23.4499 21.8493 22.3719 21.9558 21.2274C22.0888 19.5773 21.3037 17.9936 19.7334 16.7294C18.8417 16.0241 17.8037 15.4651 16.6725 15.0526C19.6136 14.2009 23.3132 14.7731 25.5888 16.6096C26.8131 17.5944 27.4386 18.832 27.3188 20.1096Z" fill="#101010"/>
</svg>
