<svg width="28" height="24" viewBox="0 0 28 24" fill="none" xmlns="http://www.w3.org/2000/svg">
<path d="M25.9024 4.41623C25.3691 4.13005 24.2504 3.83087 22.7284 4.89753L20.8162 6.25038C20.6732 2.20485 18.9171 0.617859 14.6504 0.617859H6.84552C2.39674 0.617859 0.666656 2.34794 0.666656 6.79672V17.2032C0.666656 20.1951 2.29267 23.3821 6.84552 23.3821H14.6504C18.9171 23.3821 20.6732 21.7951 20.8162 17.7496L22.7284 19.1024C23.5349 19.6748 24.2374 19.8569 24.7967 19.8569C25.278 19.8569 25.6553 19.7138 25.9024 19.5837C26.4358 19.3105 27.3333 18.5691 27.3333 16.7089V7.29103C27.3333 5.43087 26.4358 4.6894 25.9024 4.41623ZM12.6992 11.1935C11.3593 11.1935 10.2536 10.1008 10.2536 8.74794C10.2536 7.3951 11.3593 6.30241 12.6992 6.30241C14.039 6.30241 15.1447 7.3951 15.1447 8.74794C15.1447 10.1008 14.039 11.1935 12.6992 11.1935Z" fill="#101010"/>
</svg>
