<svg width="24" height="24" viewBox="0 0 24 24" fill="none" xmlns="http://www.w3.org/2000/svg">
<path d="M17.419 7.63666C17.3506 7.6269 17.2822 7.6269 17.2138 7.63666C15.6996 7.58782 14.498 6.34717 14.498 4.82322C14.498 3.26996 15.7582 2 17.3213 2C18.8745 2 20.1445 3.26019 20.1445 4.82322C20.1347 6.34717 18.9331 7.58782 17.419 7.63666Z" fill="white"/>
<path d="M20.6061 14.4069C19.512 15.1396 17.9783 15.4131 16.5618 15.2275C16.933 14.4264 17.1284 13.5375 17.1381 12.5997C17.1381 11.6228 16.9232 10.6947 16.5129 9.8839C17.9587 9.68852 19.4925 9.96205 20.5963 10.6947C22.1398 11.7107 22.1398 13.3812 20.6061 14.4069Z" fill="white"/>
<path d="M6.58624 7.63666C6.65462 7.6269 6.72301 7.6269 6.79139 7.63666C8.30557 7.58782 9.50715 6.34717 9.50715 4.82322C9.50715 3.26019 8.24696 2 6.68393 2C5.13067 2 3.87048 3.26019 3.87048 4.82322C3.87048 6.34717 5.07206 7.58782 6.58624 7.63666Z" fill="white"/>
<path d="M6.69461 12.5998C6.69461 13.5474 6.89976 14.4462 7.27098 15.257C5.89356 15.4035 4.45753 15.1105 3.40249 14.4169C1.859 13.3911 1.859 11.7206 3.40249 10.6949C4.44776 9.99154 5.92287 9.70824 7.31006 9.86455C6.90953 10.6851 6.69461 11.6132 6.69461 12.5998Z" fill="white"/>
<path d="M12.1356 15.5495C12.0574 15.5397 11.9695 15.5397 11.8816 15.5495C10.0841 15.4909 8.64807 14.0158 8.64807 12.1987C8.65784 10.3427 10.1525 8.83824 12.0184 8.83824C13.8745 8.83824 15.3789 10.3427 15.3789 12.1987C15.3691 14.0158 13.9428 15.4909 12.1356 15.5495Z" fill="white"/>
<path d="M8.9607 17.5723C7.48559 18.5589 7.48559 20.1806 8.9607 21.1575C10.641 22.2809 13.3958 22.2809 15.0761 21.1575C16.5512 20.1708 16.5512 18.5492 15.0761 17.5723C13.4056 16.4488 10.6507 16.4488 8.9607 17.5723Z" fill="white"/>
</svg>
