<svg width="24" height="24" viewBox="0 0 24 24" fill="none" xmlns="http://www.w3.org/2000/svg">
<path d="M18.0809 8.49808C19.8753 8.49808 21.33 7.04344 21.33 5.24904C21.33 3.45465 19.8753 2 18.0809 2C16.2865 2 14.8319 3.45465 14.8319 5.24904C14.8319 7.04344 16.2865 8.49808 18.0809 8.49808Z" fill="white"/>
<path d="M5.91896 8.49808C7.71335 8.49808 9.168 7.04344 9.168 5.24904C9.168 3.45465 7.71335 2 5.91896 2C4.12457 2 2.66992 3.45465 2.66992 5.24904C2.66992 7.04344 4.12457 8.49808 5.91896 8.49808Z" fill="white"/>
<path d="M18.0809 22C19.8753 22 21.33 20.5454 21.33 18.751C21.33 16.9565 19.8753 15.5019 18.0809 15.5019C16.2865 15.5019 14.8319 16.9565 14.8319 18.751C14.8319 20.5454 16.2865 22 18.0809 22Z" fill="white"/>
<path d="M5.91896 22C7.71335 22 9.168 20.5454 9.168 18.751C9.168 16.9565 7.71335 15.5019 5.91896 15.5019C4.12457 15.5019 2.66992 16.9565 2.66992 18.751C2.66992 20.5454 4.12457 22 5.91896 22Z" fill="white"/>
</svg>
