<svg width="20" height="20" viewBox="0 0 20 20" fill="none" xmlns="http://www.w3.org/2000/svg">
<path fill-rule="evenodd" clip-rule="evenodd" d="M10.0049 0C10.199 0 10.3851 0.0770904 10.5223 0.214313L13.7906 3.48262C14.0764 3.76837 14.0764 4.23167 13.7906 4.51742C13.5049 4.80317 13.0416 4.80317 12.7558 4.51742L10.7366 2.49821V12.927C10.7366 13.3311 10.409 13.6587 10.0049 13.6587C9.60082 13.6587 9.27322 13.3311 9.27322 12.927V2.49823L7.25404 4.51742C6.96829 4.80317 6.505 4.80317 6.21925 4.51742C5.9335 4.23167 5.9335 3.76837 6.21925 3.48262L9.48754 0.214315C9.62476 0.0770916 9.81087 0 10.0049 0ZM14.3994 6.24654C13.9968 6.21186 13.6423 6.51015 13.6076 6.91277C13.573 7.31539 13.8713 7.66989 14.2739 7.70456C15.9208 7.84637 16.933 8.32643 17.5587 9.09757C18.2008 9.88891 18.5513 11.1255 18.5513 13.0341V13.1609C18.5513 15.2691 18.1248 16.5552 17.3473 17.3326C16.5699 18.11 15.2838 18.5366 13.1757 18.5366H6.82441C4.71628 18.5366 3.4302 18.11 2.65276 17.3326C1.87532 16.5552 1.44877 15.2691 1.44877 13.1609V13.0341C1.44877 11.1399 1.79443 9.90809 2.42746 9.1168C3.04358 8.34665 4.03812 7.86442 5.65329 7.71386C6.05566 7.67635 6.35144 7.31976 6.31393 6.91739C6.27642 6.51502 5.91983 6.21924 5.51746 6.25675C3.67896 6.42814 2.23934 7.00933 1.28472 8.20261C0.347018 9.37474 -0.0146484 11.0063 -0.0146484 13.0341V13.1609C-0.0146484 15.4138 0.431976 17.1814 1.61796 18.3674C2.80395 19.5534 4.57154 20 6.82441 20H13.1757C15.4285 20 17.1961 19.5534 18.3821 18.3674C19.5681 17.1814 20.0147 15.4138 20.0147 13.1609V13.0341C20.0147 10.9915 19.6481 9.35002 18.6951 8.17549C17.7257 6.98077 16.2648 6.40716 14.3994 6.24654Z" fill="#3A3A87"/>
<path fill-rule="evenodd" clip-rule="evenodd" d="M10.0049 0C10.199 0 10.3851 0.0770904 10.5223 0.214313L13.7906 3.48262C14.0764 3.76837 14.0764 4.23167 13.7906 4.51742C13.5049 4.80317 13.0416 4.80317 12.7558 4.51742L10.7366 2.49821V12.927C10.7366 13.3311 10.409 13.6587 10.0049 13.6587C9.60082 13.6587 9.27322 13.3311 9.27322 12.927V2.49823L7.25404 4.51742C6.96829 4.80317 6.505 4.80317 6.21925 4.51742C5.9335 4.23167 5.9335 3.76837 6.21925 3.48262L9.48754 0.214315C9.62476 0.0770916 9.81087 0 10.0049 0ZM14.3994 6.24654C13.9968 6.21186 13.6423 6.51015 13.6076 6.91277C13.573 7.31539 13.8713 7.66989 14.2739 7.70456C15.9208 7.84637 16.933 8.32643 17.5587 9.09757C18.2008 9.88891 18.5513 11.1255 18.5513 13.0341V13.1609C18.5513 15.2691 18.1248 16.5552 17.3473 17.3326C16.5699 18.11 15.2838 18.5366 13.1757 18.5366H6.82441C4.71628 18.5366 3.4302 18.11 2.65276 17.3326C1.87532 16.5552 1.44877 15.2691 1.44877 13.1609V13.0341C1.44877 11.1399 1.79443 9.90809 2.42746 9.1168C3.04358 8.34665 4.03812 7.86442 5.65329 7.71386C6.05566 7.67635 6.35144 7.31976 6.31393 6.91739C6.27642 6.51502 5.91983 6.21924 5.51746 6.25675C3.67896 6.42814 2.23934 7.00933 1.28472 8.20261C0.347018 9.37474 -0.0146484 11.0063 -0.0146484 13.0341V13.1609C-0.0146484 15.4138 0.431976 17.1814 1.61796 18.3674C2.80395 19.5534 4.57154 20 6.82441 20H13.1757C15.4285 20 17.1961 19.5534 18.3821 18.3674C19.5681 17.1814 20.0147 15.4138 20.0147 13.1609V13.0341C20.0147 10.9915 19.6481 9.35002 18.6951 8.17549C17.7257 6.98077 16.2648 6.40716 14.3994 6.24654Z" fill="black" fill-opacity="0.2"/>
</svg>
