<svg width="24" height="24" viewBox="0 0 24 24" fill="none" xmlns="http://www.w3.org/2000/svg">
<path d="M15.7997 2.21048C15.3897 1.80048 14.6797 2.08048 14.6797 2.65048V6.14048C14.6797 7.60048 15.9197 8.81048 17.4297 8.81048C18.3797 8.82048 19.6997 8.82048 20.8297 8.82048C21.3997 8.82048 21.6997 8.15048 21.2997 7.75048C19.8597 6.30048 17.2797 3.69048 15.7997 2.21048Z" fill="white"/>
<path fill-rule="evenodd" clip-rule="evenodd" d="M17.61 10.19H20.5C21.05 10.19 21.5 10.64 21.5 11.19V16.43C21.5 20 19.01 22 15.93 22H8.07C4.99 22 2.5 20 2.5 16.43V7.57C2.5 4 4.99 2 8.07 2H12.31C12.86 2 13.31 2.45 13.31 3V5.89C13.31 8.26 15.24 10.19 17.61 10.19ZM6.66804 18.2648C6.66804 18.7011 7.0217 19.0547 7.45796 19.0547C7.89422 19.0547 8.24788 18.7011 8.24788 18.2648L8.24788 12.0877C8.24788 11.6514 7.89422 11.2977 7.45796 11.2977C7.0217 11.2977 6.66804 11.6514 6.66804 12.0877L6.66804 18.2648ZM12 19.0547C11.5637 19.0547 11.2101 18.7011 11.2101 18.2648V14.2306C11.2101 13.7943 11.5637 13.4406 12 13.4406C12.4363 13.4406 12.7899 13.7943 12.7899 14.2306V18.2648C12.7899 18.7011 12.4363 19.0547 12 19.0547ZM15.7521 18.2648C15.7521 18.7011 16.1058 19.0547 16.542 19.0547C16.9783 19.0547 17.332 18.7011 17.332 18.2648V16.0956C17.332 15.6593 16.9783 15.3056 16.542 15.3056C16.1058 15.3056 15.7521 15.6593 15.7521 16.0956V18.2648Z" fill="white"/>
</svg>
