<svg width="22" height="20" viewBox="0 0 22 20" fill="none" xmlns="http://www.w3.org/2000/svg">
<path fill-rule="evenodd" clip-rule="evenodd" d="M19.4228 10C19.4228 7.35821 18.4827 5.30374 17.0124 3.90717C15.5354 2.50414 13.4692 1.71429 11.1371 1.71429C10.6637 1.71429 10.2799 1.33053 10.2799 0.857143C10.2799 0.383756 10.6637 0 11.1371 0C13.8564 0 16.3615 0.924429 18.1931 2.66426C20.0315 4.41054 21.1371 6.92751 21.1371 10C21.1371 13.0725 20.0315 15.5895 18.1931 17.3357C16.3615 19.0756 13.8564 20 11.1371 20C10.6637 20 10.2799 19.6162 10.2799 19.1429C10.2799 18.6695 10.6637 18.2857 11.1371 18.2857C13.4692 18.2857 15.5354 17.4959 17.0124 16.0928C18.4827 14.6963 19.4228 12.6418 19.4228 10ZM5.25187 6.53676C4.91713 6.20203 4.37442 6.20203 4.03968 6.53676L1.11397 9.46248C0.953222 9.62322 0.862917 9.84124 0.862917 10.0686C0.862917 10.2959 0.953222 10.5139 1.11397 10.6747L4.03968 13.6004C4.37442 13.9351 4.91713 13.9351 5.25187 13.6004C5.5866 13.2656 5.5866 12.7229 5.25187 12.3882L3.78949 10.9258H13.4228C13.8962 10.9258 14.2799 10.5421 14.2799 10.0687C14.2799 9.59528 13.8962 9.21153 13.4228 9.21153H3.78929L5.25187 7.74895C5.5866 7.41421 5.5866 6.8715 5.25187 6.53676Z" fill="white"/>
</svg>
