<svg width="24" height="24" viewBox="0 0 24 24" fill="none" xmlns="http://www.w3.org/2000/svg">
<path d="M11.5359 21.0699C6.28007 21.0699 2.00098 16.7908 2.00098 11.5349C2.00098 6.27909 6.28007 2 11.5359 2C16.7917 2 21.0708 6.27909 21.0708 11.5349C21.0708 16.7908 16.7917 21.0699 11.5359 21.0699ZM11.5359 3.39536C7.04286 3.39536 3.39633 7.05119 3.39633 11.5349C3.39633 16.0187 7.04286 19.6745 11.5359 19.6745C16.0289 19.6745 19.6755 16.0187 19.6755 11.5349C19.6755 7.05119 16.0289 3.39536 11.5359 3.39536Z" fill="#494949" fill-opacity="0.8"/>
<path d="M21.3038 22C21.127 22 20.9503 21.9349 20.8107 21.7953L18.9503 19.9349C18.6805 19.6651 18.6805 19.2186 18.9503 18.9488C19.22 18.679 19.6665 18.679 19.9363 18.9488L21.7968 20.8093C22.0665 21.0791 22.0665 21.5256 21.7968 21.7953C21.6572 21.9349 21.4805 22 21.3038 22Z" fill="#494949" fill-opacity="0.8"/>
</svg>
