<svg width="28" height="28" viewBox="0 0 28 28" fill="none" xmlns="http://www.w3.org/2000/svg">
<path d="M25.8452 7.45678C24.7374 6.2317 22.8868 5.61916 20.202 5.61916H19.8892V5.56703C19.8892 3.37751 19.8892 0.666687 14.9889 0.666687H13.0079C8.10756 0.666687 8.10756 3.39055 8.10756 5.56703V5.63219H7.79477C5.09698 5.63219 3.25935 6.24473 2.15156 7.46982C0.861313 8.90343 0.900412 10.8323 1.03074 12.1486L1.04377 12.2398L1.14472 13.2997C1.16331 13.495 1.26845 13.6713 1.43252 13.7787C1.74504 13.9832 2.26811 14.3203 2.58164 14.4945C2.7641 14.6118 2.9596 14.716 3.15509 14.8203C5.3837 16.0454 7.83387 16.8664 10.3231 17.2705C10.4404 18.4955 10.9748 19.9291 13.8289 19.9291C16.6831 19.9291 17.2435 18.5086 17.3348 17.2444C19.9935 16.8143 22.5609 15.889 24.8808 14.5336C24.959 14.4945 25.0111 14.4554 25.0763 14.4163C25.5933 14.1241 26.1297 13.764 26.6187 13.4113C26.766 13.305 26.8602 13.1407 26.8803 12.9602L26.9009 12.7741L26.966 12.1616C26.9791 12.0834 26.9791 12.0182 26.9921 11.927C27.0964 10.6107 27.0703 8.8122 25.8452 7.45678ZM15.419 16.3842C15.419 17.7657 15.419 17.9742 13.8159 17.9742C12.2129 17.9742 12.2129 17.7266 12.2129 16.3973V14.7551H15.419V16.3842ZM9.97125 5.61916V5.56703C9.97125 3.35145 9.97125 2.53038 13.0079 2.53038H14.9889C18.0255 2.53038 18.0255 3.36448 18.0255 5.56703V5.63219H9.97125V5.61916Z" fill="#101010"/>
<path d="M25.5615 16.2609C26.0224 16.0416 26.5532 16.4069 26.507 16.9152L26.0392 22.0681C25.7655 24.6746 24.6968 27.3333 18.9623 27.3333H9.03139C3.29695 27.3333 2.22826 24.6746 1.95457 22.0811L1.51053 17.1967C1.46486 16.6943 1.98351 16.3293 2.44309 16.5373C3.92808 17.2092 6.66906 18.4012 8.36225 18.8447C8.57639 18.9007 8.74958 19.054 8.84335 19.2546C9.63441 20.9463 11.3501 21.8465 13.8274 21.8465C16.2805 21.8465 18.0177 20.9117 18.8114 19.2157C18.9053 19.015 19.0787 18.8617 19.293 18.8054C21.0909 18.3324 24.0084 16.9999 25.5615 16.2609Z" fill="#101010"/>
</svg>
