<svg width="20" height="21" viewBox="0 0 20 21" fill="none" xmlns="http://www.w3.org/2000/svg">
<path d="M9.99996 11.9167C5.82493 11.9167 2.42493 14.7167 2.42493 18.1667C2.42493 18.4 2.60826 18.5833 2.84159 18.5833H17.1583C17.3916 18.5833 17.575 18.4 17.575 18.1667C17.575 14.7167 14.175 11.9167 9.99996 11.9167Z" fill="white"/>
<path d="M9.9998 1.91666C9.01646 1.91666 8.11646 2.25832 7.3998 2.83332C6.44146 3.59166 5.83313 4.76666 5.83313 6.08332C5.83313 6.86666 6.0498 7.59999 6.44146 8.22499C7.15813 9.43332 8.4748 10.25 9.9998 10.25C11.0498 10.25 12.0081 9.86666 12.7415 9.20832C13.0665 8.93332 13.3498 8.59999 13.5665 8.22499C13.9498 7.59999 14.1665 6.86666 14.1665 6.08332C14.1665 3.78332 12.2998 1.91666 9.9998 1.91666ZM12.1581 5.63332L9.93313 7.68332C9.78313 7.82499 9.59146 7.89166 9.3998 7.89166C9.1998 7.89166 8.9998 7.81666 8.8498 7.66666L7.8248 6.63332C7.51646 6.32499 7.51646 5.83332 7.8248 5.52499C8.13313 5.21666 8.6248 5.21666 8.93313 5.52499L9.4248 6.01666L11.0998 4.47499C11.4165 4.18332 11.9081 4.19999 12.1998 4.51666C12.4915 4.84166 12.4748 5.34166 12.1581 5.63332Z" fill="white"/>
</svg>
